<svg viewBox="0 0 56 56" xmlns="http://www.w3.org/2000/svg" xmlns:xlink="http://www.w3.org/1999/xlink" width="56.000000" height="56.000000" fill="none" customFrame="url(#clipPath_0)">
	<defs>
		<clipPath id="clipPath_0">
			<rect width="56.000000" height="56.000000" x="0.000000" y="0.000000" rx="8.000000" fill="rgb(255,255,255)" />
		</clipPath>
		<clipPath id="clipPath_1">
			<rect width="40.000000" height="40.000000" x="8.000000" y="8.000000" fill="rgb(255,255,255)" />
		</clipPath>
	</defs>
	<rect id="Home" width="56.000000" height="56.000000" x="0.000000" y="0.000000" rx="8.000000" fill="rgb(30.169,30.169,41.231)" />
	<g id="Logo" opacity="0.800000012" clip-path="url(#clipPath_1)" customFrame="url(#clipPath_1)">
		<rect id="Logo" width="40.000000" height="40.000000" x="8.000000" y="8.000000" />
		<g id="Logo">
			<g id="Vector">
				<path id="Vector" d="M35.6653 37.7803C34.5942 37.7803 33.9343 37.2858 32.8561 36.7034C31.7779 36.121 28.6595 33.7761 28.6595 30.8572C28.6595 28.8771 28.1491 27.2756 27.2798 25.9992C26.4171 24.7327 25.2482 23.8552 24.0322 23.2358C23.4463 22.9374 22.8365 22.6933 22.2293 22.4916C21.8754 22.3741 21.6699 21.994 21.8235 21.6542C22.7969 19.4993 24.9648 18 27.483 18C30.9109 18 33.6899 20.7789 33.6899 24.2069C33.6899 24.9403 33.5628 25.6441 33.3292 26.2972C34.3186 25.6304 35.5107 25.2413 36.7934 25.2413C40.2213 25.2413 43.0001 28.0202 43.0001 31.4483C43.0001 35.5751 39.3738 37.7803 35.6653 37.7803Z" fill="rgb(143,178,245)" fill-rule="nonzero" />
				<path id="Vector" d="M13 30.9312C13 34.2029 15.157 36.929 18.0146 37.5314C18.4557 37.6925 18.9319 37.7804 19.4286 37.7804L29.0723 37.7804C29.3957 37.7804 29.5365 37.3479 29.2896 37.1389C27.6042 35.7129 26.3517 33.7031 26.3517 30.8573C26.3517 29.2936 25.9557 28.1547 25.3724 27.2985C24.7824 26.4325 23.9526 25.7852 22.9846 25.292C22.0077 24.7944 20.9471 24.4775 19.9342 24.2528C19.6957 24.2227 19.4529 24.207 19.2069 24.207C15.7789 24.207 13 27.2176 13 30.9312Z" fill="rgb(143,178,245)" fill-rule="nonzero" />
			</g>
		</g>
	</g>
</svg>
